<svg xmlns="http://www.w3.org/2000/svg" width="31" height="25" viewBox="0 0 31 25">
  <metadata><?xpacket begin="﻿" id="W5M0MpCehiHzreSzNTczkc9d"?>
<x:xmpmeta xmlns:x="adobe:ns:meta/" x:xmptk="Adobe XMP Core 5.6-c138 79.159824, 2016/09/14-01:09:01        ">
   <rdf:RDF xmlns:rdf="http://www.w3.org/1999/02/22-rdf-syntax-ns#">
      <rdf:Description rdf:about=""/>
   </rdf:RDF>
</x:xmpmeta>
                                                                                                    
                                                                                                    
                                                                                                    
                                                                                                    
                                                                                                    
                                                                                                    
                                                                                                    
                                                                                                    
                                                                                                    
                                                                                                    
                                                                                                    
                                                                                                    
                                                                                                    
                                                                                                    
                                                                                                    
                                                                                                    
                                                                                                    
                                                                                                    
                                                                                                    
                                                                                                    
                           
<?xpacket end="w"?></metadata>
<defs>
    <style>
      .cls-1 {
        fill: #103a5d;
        fill-rule: evenodd;
      }
    </style>
  </defs>
  <path id="Forma_1" data-name="Forma 1" class="cls-1" d="M1171.29,268.968a10.957,10.957,0,0,0,4.44-3.311,7.2,7.2,0,0,0,0-9.126,10.95,10.95,0,0,0-4.44-3.312,15.983,15.983,0,0,0-12.23,0,10.983,10.983,0,0,0-4.43,3.312,7.256,7.256,0,0,0-1.63,4.563,7.1,7.1,0,0,0,1.23,3.978,10.214,10.214,0,0,0,3.37,3.142c-0.11.284-.23,0.544-0.35,0.781a4.267,4.267,0,0,1-.44.684c-0.16.219-.29,0.39-0.38,0.515s-0.25.3-.45,0.523-0.34.373-.4,0.444a0.126,0.126,0,0,0-.07.08,0.217,0.217,0,0,1-.08.089,0.16,0.16,0,0,0-.07.088l-0.06.1-0.04.089a0.442,0.442,0,0,0-.04.106c0,0.035-.01.074-0.01,0.115a0.419,0.419,0,0,0,.02.115,0.577,0.577,0,0,0,.2.373,0.539,0.539,0,0,0,.36.142h0.05a13.623,13.623,0,0,0,6.29-2.557,16.978,16.978,0,0,0,3.05.284A15.184,15.184,0,0,0,1171.29,268.968Zm11.48,0.657a7.069,7.069,0,0,0-.07-8.07,10.286,10.286,0,0,0-3.53-3.161,9.332,9.332,0,0,1-.76,7.209,11.765,11.765,0,0,1-3.32,3.764,15.174,15.174,0,0,1-4.57,2.29,17.792,17.792,0,0,1-5.34.8c-0.35,0-.86-0.023-1.52-0.071a14.232,14.232,0,0,0,8.16,2.344,17.07,17.07,0,0,0,3.05-.284,14.393,14.393,0,0,0,4.8,2.273,14.8,14.8,0,0,0,1.49.283,0.5,0.5,0,0,0,.38-0.124,0.667,0.667,0,0,0,.23-0.39c-0.01-.071,0-0.11.02-0.115a0.158,0.158,0,0,0-.01-0.116,1.056,1.056,0,0,1-.04-0.106l-0.04-.089a0.56,0.56,0,0,0-.06-0.1,0.656,0.656,0,0,0-.07-0.089c-0.02-.017-0.04-0.047-0.08-0.089a0.875,0.875,0,0,0-.07-0.08c-0.06-.07-0.19-0.218-0.4-0.443s-0.35-.4-0.44-0.524-0.23-.3-0.39-0.515a4.267,4.267,0,0,1-.44-0.684,8.367,8.367,0,0,1-.35-0.781A10.245,10.245,0,0,0,1182.77,269.625Z" transform="translate(-1153 -252)"/>
</svg>
