<svg xmlns="http://www.w3.org/2000/svg" width="20" height="20" viewBox="0 0 20 20">
  <metadata><?xpacket begin="﻿" id="W5M0MpCehiHzreSzNTczkc9d"?>
<x:xmpmeta xmlns:x="adobe:ns:meta/" x:xmptk="Adobe XMP Core 5.6-c138 79.159824, 2016/09/14-01:09:01        ">
   <rdf:RDF xmlns:rdf="http://www.w3.org/1999/02/22-rdf-syntax-ns#">
      <rdf:Description rdf:about=""/>
   </rdf:RDF>
</x:xmpmeta>
                                                                                                    
                                                                                                    
                                                                                                    
                                                                                                    
                                                                                                    
                                                                                                    
                                                                                                    
                                                                                                    
                                                                                                    
                                                                                                    
                                                                                                    
                                                                                                    
                                                                                                    
                                                                                                    
                                                                                                    
                                                                                                    
                                                                                                    
                                                                                                    
                                                                                                    
                                                                                                    
                           
<?xpacket end="w"?></metadata>
<defs>
    <style>
      .cls-1 {
        fill: #103a5d;
        fill-rule: evenodd;
      }
    </style>
  </defs>
  <path id="Forma_1" data-name="Forma 1" class="cls-1" d="M371,253a10,10,0,1,0,10,10A10.011,10.011,0,0,0,371,253Zm0,19.333A9.333,9.333,0,1,1,380.333,263,9.344,9.344,0,0,1,371,272.333Zm0.333-10.659v-3.381a0.333,0.333,0,0,0-.666,0v3.381a1.329,1.329,0,0,0-.953.952h-2.381a0.334,0.334,0,0,0,0,.667h2.381A1.33,1.33,0,1,0,371.333,261.674ZM371,263.626a0.667,0.667,0,1,1,.667-0.666A0.667,0.667,0,0,1,371,263.626Zm0-7.333a0.333,0.333,0,0,0,.333-0.333v-0.334a0.333,0.333,0,1,0-.666,0v0.334A0.333,0.333,0,0,0,371,256.293Zm0,13.333a0.333,0.333,0,0,0-.333.334v0.333a0.333,0.333,0,0,0,.666,0V269.96A0.333,0.333,0,0,0,371,269.626Zm7.333-7H378a0.334,0.334,0,0,0,0,.667h0.333A0.334,0.334,0,1,0,378.333,262.626Zm-14.333,0h-0.333a0.334,0.334,0,1,0,0,.667H364A0.334,0.334,0,0,0,364,262.626Zm11.95-5.088-0.236.236a0.333,0.333,0,1,0,.471.471l0.236-.235A0.333,0.333,0,0,0,375.95,257.538Zm-10.135,10.136-0.236.235a0.333,0.333,0,0,0,.471.472l0.236-.236A0.333,0.333,0,0,0,365.815,267.674Zm10.37,0a0.333,0.333,0,0,0-.471.471l0.236,0.236a0.333,0.333,0,1,0,.471-0.472ZM366.05,257.538a0.333,0.333,0,0,0-.471.472l0.236,0.235a0.333,0.333,0,0,0,.471-0.471Z" transform="translate(-361 -253)"/>
</svg>
