<?xml version="1.0" encoding="utf-8"?>
<!-- Generator: Adobe Illustrator 18.1.1, SVG Export Plug-In . SVG Version: 6.00 Build 0)  -->
<svg version="1.0" id="Слой_1" xmlns="http://www.w3.org/2000/svg" xmlns:xlink="http://www.w3.org/1999/xlink" x="0px" y="0px"
	 viewBox="0 0 185.9 48.8" enable-background="new 0 0 185.9 48.8" xml:space="preserve">
<g>
	<g>
		<path fill="#113A5E" d="M103.4,48.8c-0.5,0-0.9-0.4-0.9-0.9V0.9c0-0.5,0.4-0.9,0.9-0.9s0.9,0.4,0.9,0.9v46.9
			C104.4,48.3,104,48.8,103.4,48.8z"/>
	</g>
	<g>
		<g>
			<path fill="#212121" d="M11.2,11.4H0v25.9h6.2v-9.1h5.4c5.8,0,9.3-3.1,9.3-8.4C20.8,14.5,17.3,11.4,11.2,11.4z M14.8,20
				c0,2.3-1.2,3.3-4,3.3H6.2v-6.6h4.6C13.4,16.6,14.8,17.7,14.8,20z"/>
		</g>
		<g>
			<path fill="#212121" d="M34,10.8c-7.3,0-12.1,5.5-12.1,13.6c0,8.1,4.9,13.5,12.1,13.5c7.2,0,12-5.4,12-13.5
				C45.9,16.3,41.1,10.8,34,10.8z M34,32.7c-3.9,0-6.2-3.2-6.2-8.4c0-5,2.4-8.3,6.1-8.3c3.8,0,6.1,3.2,6.1,8.3
				C40,29.5,37.7,32.7,34,32.7z"/>
		</g>
		<g>
			<path fill="#212121" d="M61.5,21.9c-1-0.3-1.8-0.5-2.6-0.7c-3.5-0.9-4.9-1.3-4.9-2.8c0-1.6,1.4-2.5,3.8-2.5
				c2.8,0,4.3,1.2,4.5,3.5l0,0.3h5.9l0-0.3C68,14,64.2,10.9,58,10.9C51.9,10.9,48,14,48,18.8c0,5.3,4.1,6.5,8.1,7.6l1.1,0.3
				C61.9,28,63,28.4,63,30c0,1.9-1.6,3-4.4,3c-3.5,0-5.3-1.5-5.4-4.4l0-0.3h-6.1l0,0.3c0.1,5.8,4.3,9.3,11.3,9.3
				c5.2,0,10.7-2.2,10.7-8.5C69.1,24.9,66,23.2,61.5,21.9z"/>
		</g>
		<g>
			<polygon fill="#212121" points="86.7,11.4 86.7,20.9 77.7,20.9 77.7,11.4 71.5,11.4 71.5,37.3 77.7,37.3 77.7,26.5 86.7,26.5 
				86.7,37.3 92.9,37.3 92.9,11.4 			"/>
		</g>
	</g>
	<g>
		<g>
			<path fill="#113A5E" d="M115.7,12.1v10.8c1.5-3,4.5-4.3,7.7-4.3c5.2,0,9.3,3.4,9.3,9.5c0,6.1-4.1,9.5-9.2,9.5
				c-3.1,0-6.2-1.6-7.7-4.4v4.1h-1.8V12.1c0-0.5,0.4-0.9,0.9-0.9l0,0C115.3,11.2,115.7,11.6,115.7,12.1z M115.7,28.1
				c0,4.6,3.2,7.8,7.6,7.8c4.2,0,7.6-2.6,7.6-7.7c0-5.2-3.4-7.8-7.6-7.8C119,20.3,115.7,23.5,115.7,28.1z"/>
		</g>
		<g>
			<path fill="#113A5E" d="M164.1,37.3V26.3c0-3.6-2.4-6.1-5.9-6.1c-3.5,0-5.9,2.6-5.9,6.2v11h-1.8v-11c0-3.6-2.4-6.1-5.9-6.1
				c-3.5,0-5.9,2.6-5.9,6.1v11h-1.8V19.7c0-0.5,0.4-0.9,0.9-0.9h0c0.5,0,0.9,0.4,0.9,0.9l0,2.2c1.3-2.4,3.6-3.4,6-3.4
				c2.8,0,5.8,1.3,6.8,4.6c1.1-3,4-4.6,6.8-4.6c4.5,0,7.7,3.2,7.7,7.8v11.1H164.1z"/>
		</g>
		<g>
			<path fill="#113A5E" d="M185.6,34.1c0.4,0.4,0.3,1-0.1,1.3c-1.8,1.4-3.9,2.1-6,2.1c-5.2,0-9.5-3.6-9.5-9.4s4.2-9.4,9.5-9.4
				c2.1,0,4.3,0.7,6,2.2c0.4,0.3,0.4,0.9,0,1.2l0,0c-0.3,0.3-0.8,0.3-1.1,0c-1.4-1.2-3.2-1.7-5-1.7c-4.2,0-7.7,2.7-7.7,7.7
				c0,5,3.5,7.7,7.7,7.7c1.7,0,3.5-0.6,4.9-1.7C184.8,33.8,185.3,33.8,185.6,34.1L185.6,34.1z"/>
		</g>
	</g>
</g>
</svg>
